<?xml version="1.0" encoding="UTF-8" standalone="no"?>
<svg
   xmlns:dc="http://purl.org/dc/elements/1.1/"
   xmlns:cc="http://creativecommons.org/ns#"
   xmlns:rdf="http://www.w3.org/1999/02/22-rdf-syntax-ns#"
   xmlns:svg="http://www.w3.org/2000/svg"
   xmlns="http://www.w3.org/2000/svg"
   xmlns:sodipodi="http://sodipodi.sourceforge.net/DTD/sodipodi-0.dtd"
   xmlns:inkscape="http://www.inkscape.org/namespaces/inkscape"
   version="1.0"
   width="1280.000000pt"
   height="1280.000000pt"
   viewBox="0 0 1280.000000 1280.000000"
   preserveAspectRatio="xMidYMid meet"
   id="svg8"
   sodipodi:docname="flo.svg"
   inkscape:version="1.0.1 (3bc2e813f5, 2020-09-07)">
  <defs
     id="defs12" />
  <sodipodi:namedview
     pagecolor="#ffffff"
     bordercolor="#666666"
     borderopacity="1"
     objecttolerance="10"
     gridtolerance="10"
     guidetolerance="10"
     inkscape:pageopacity="0"
     inkscape:pageshadow="2"
     inkscape:window-width="1920"
     inkscape:window-height="986"
     id="namedview10"
     showgrid="false"
     inkscape:zoom="0.46875"
     inkscape:cx="853.33333"
     inkscape:cy="853.33333"
     inkscape:window-x="-11"
     inkscape:window-y="-11"
     inkscape:window-maximized="1"
     inkscape:current-layer="svg8" />
  <metadata
     id="metadata2">
Created by potrace 1.15, written by Peter Selinger 2001-2017
<rdf:RDF>
  <cc:Work
     rdf:about="">
    <dc:format>image/svg+xml</dc:format>
    <dc:type
       rdf:resource="http://purl.org/dc/dcmitype/StillImage" />
    <dc:title></dc:title>
  </cc:Work>
</rdf:RDF>
</metadata>
  <path
     d="m 603.9,1.7 c -0.5,1 -8.3,14.4 -17.2,29.8 L 570.5,59.4 533.6,80.7 496.8,102 H 452.9 409 L 380.5,85.5 C 364.8,76.4 351.3,69 350.5,69 c -0.8,0 -4,4.4 -7.1,9.7 -3.1,5.4 -7.5,12.9 -9.8,16.7 l -4.1,6.8 -18.1,-0.1 c -9.9,-0.1 -18.8,0.1 -19.7,0.5 -1.5,0.6 -1.7,3.7 -1.7,34.8 l -0.1,34.1 -21.7,37.5 -21.7,37.5 -37.5,21.7 -37.5,21.7 -34.1,0.1 c -29,0 -34.3,0.2 -34.7,1.5 -0.4,0.8 -0.6,9.6 -0.6,19.7 l 0.1,18.3 -6.9,4.1 c -3.7,2.3 -11.2,6.7 -16.5,9.8 -5.4,3.2 -9.8,6.3 -9.8,7.1 0,0.8 7.4,14.3 16.5,30 L 102,409 v 43.9 43.9 l -21.3,36.8 -21.3,36.9 -28.8,16.7 c -15.9,9.1 -29.3,17.1 -29.9,17.7 -0.7,0.7 2,6.3 8.8,18.1 l 9.8,17 -9.8,17 c -6.8,11.8 -9.5,17.4 -8.8,18.1 0.6,0.6 14,8.6 29.9,17.7 l 28.8,16.7 21.3,36.9 21.3,36.8 v 43.9 43.9 l -16.5,28.5 c -9.1,15.7 -16.5,29.2 -16.5,30 0,0.8 4.4,3.9 9.8,7.1 5.3,3.1 12.8,7.5 16.5,9.8 l 6.9,4.1 -0.1,18.3 c 0,10.1 0.2,18.9 0.6,19.7 0.4,1.3 5.7,1.5 34.7,1.5 l 34.1,0.1 37.5,21.7 37.5,21.7 21.7,37.5 21.7,37.5 0.1,34.1 c 0,31.1 0.2,34.2 1.7,34.8 0.9,0.4 9.8,0.6 19.7,0.5 l 18.1,-0.1 4.1,6.8 c 2.3,3.8 6.7,11.3 9.8,16.7 3.1,5.3 6.3,9.7 7.1,9.7 0.8,0 14.3,-7.4 30,-16.5 L 409,1178 h 43.9 43.9 l 36.8,21.3 36.9,21.3 16.7,28.9 c 9.2,15.8 17.2,29.3 17.7,29.8 0.7,0.7 6.9,-2.4 18.1,-8.8 l 17,-9.8 17,9.8 c 11.8,6.8 17.4,9.5 18.1,8.8 0.6,-0.6 8.6,-14 17.7,-29.9 l 16.7,-28.8 36.9,-21.3 36.8,-21.3 h 43.9 43.9 l 28.5,16.5 c 15.7,9.1 29.2,16.5 30,16.5 0.8,0 4,-4.4 7.1,-9.8 3.1,-5.3 7.5,-12.8 9.8,-16.6 l 4.1,-6.8 18.1,0.1 c 9.9,0.1 18.8,-0.1 19.7,-0.5 1.5,-0.6 1.7,-3.7 1.7,-34.8 l 0.1,-34.1 21.7,-37.5 21.7,-37.5 37.5,-21.7 37.5,-21.7 34.1,-0.1 c 29,0 34.3,-0.2 34.7,-1.5 0.4,-0.8 0.6,-9.6 0.6,-19.7 l -0.1,-18.3 6.9,-4.1 c 3.7,-2.3 11.2,-6.7 16.6,-9.8 5.3,-3.2 9.7,-6.3 9.7,-7.1 0,-0.8 -7.4,-14.3 -16.5,-30 L 1178,871 v -43.9 -43.9 l 21.3,-36.8 21.3,-36.9 28.8,-16.7 c 15.9,-9.1 29.3,-17.1 29.9,-17.7 0.7,-0.7 -2,-6.3 -8.8,-18.1 l -9.8,-17 9.8,-17 c 6.8,-11.8 9.5,-17.4 8.8,-18.1 -0.6,-0.6 -14,-8.6 -29.9,-17.7 l -28.8,-16.7 -21.3,-36.9 -21.3,-36.8 V 452.9 409 l 16.5,-28.5 c 9.1,-15.7 16.5,-29.2 16.5,-30 0,-0.8 -4.4,-3.9 -9.7,-7.1 -5.4,-3.1 -12.9,-7.5 -16.6,-9.8 l -6.9,-4.1 0.1,-18.3 c 0,-10.1 -0.2,-18.9 -0.6,-19.7 -0.4,-1.3 -5.7,-1.5 -34.7,-1.5 l -34.1,-0.1 -37.5,-21.7 -37.5,-21.7 -21.7,-37.5 -21.7,-37.5 -0.1,-34.1 c 0,-31.1 -0.2,-34.2 -1.7,-34.8 -0.9,-0.4 -9.8,-0.6 -19.7,-0.5 l -18.1,0.1 -4.1,-6.8 c -2.3,-3.8 -6.7,-11.3 -9.8,-16.7 -3.1,-5.3 -6.3,-9.7 -7.1,-9.7 -0.8,0 -14.3,7.4 -30,16.5 L 871,102 H 827.1 783.2 L 746.4,80.7 709.5,59.4 692.8,30.6 C 683.7,14.7 675.7,1.3 675.1,0.7 674.4,0 668.8,2.7 657,9.5 L 640,19.3 623.2,9.6 C 614,4.3 606.1,0 605.7,0 c -0.4,0 -1.2,0.8 -1.8,1.7 z m 53.6,73.2 17,9.9 5.2,8.6 c 2.9,4.7 5,8.6 4.8,8.6 -0.3,0 -20.3,0 -44.5,0 -24.2,0 -44.2,0 -44.5,0 -0.2,0 1.9,-3.9 4.8,-8.6 l 5.2,-8.6 17,-9.9 c 9.4,-5.4 17.2,-9.8 17.5,-9.8 0.3,0 8.2,4.4 17.5,9.8 z m -258.3,70.7 c 12.5,7.2 13.4,5.1 -7.9,17.3 -10.3,6 -27.8,16.1 -38.8,22.4 l -20,11.6 -0.3,-9.6 -0.3,-9.6 10.2,-17.9 10.2,-17.8 h 20.3 20.3 z m 118.7,5.1 c -2.8,4.9 -5.4,9.2 -5.8,9.6 -0.7,0.7 -19.1,-9.1 -19.1,-10.3 0,-0.3 3.1,-2.2 6.8,-4.2 6.2,-3.5 7.3,-3.7 14.9,-3.8 h 8.2 z m 201.5,11.5 c 6.4,11 11.3,20.4 10.9,20.8 -1.3,1.2 -89.5,52 -90.3,52 -0.8,0 -89,-50.8 -90.3,-52 -0.4,-0.4 4.5,-9.8 10.9,-20.8 L 572.2,142 h 67.8 67.8 z m 60.7,-16.5 c 3.8,2.1 6.9,4 6.9,4.3 0,1.1 -18.4,11 -19,10.3 -0.4,-0.4 -3,-4.7 -5.9,-9.6 L 757,142 h 8.1 c 7.5,0 8.7,0.3 15,3.7 z m 157.7,14 10.3,17.7 -0.3,9.8 -0.3,9.7 -38,-22 c -20.9,-12.1 -38,-22.4 -38,-22.9 0,-0.6 3.4,-3 7.5,-5.4 l 7.5,-4.4 20.6,-0.1 20.5,-0.1 z m -468.5,26.4 c 10.6,6.1 19.6,11.4 20,11.9 0.5,0.4 -11,21.3 -25.5,46.4 L 437.5,290 385,289.7 332.5,289.5 332.2,266.2 332,243 l 3.7,-2.3 c 13.1,-7.9 112.9,-65.5 113.6,-65.6 0.4,-0.1 9.4,4.9 20,11 z m 418.8,22 c 31.6,18.2 58,33.6 58.7,34.2 0.9,0.7 1.2,6.4 1,24.1 l -0.3,23.1 -52.5,0.2 -52.5,0.3 -26,-45.1 c -14.3,-24.8 -26,-45.6 -26,-46.1 0,-0.9 38,-23.6 39.6,-23.7 0.4,-0.1 26.5,14.8 58,33 z m -326.4,31.4 c 18.5,10.7 34.2,19.6 34.7,19.8 0.6,0.3 0.9,0.6 0.6,0.9 -0.3,0.2 -12,7.1 -26.1,15.1 l -25.6,14.7 -29.1,-0.2 -29.1,-0.3 20,-34.8 c 11.1,-19.1 20.3,-34.7 20.5,-34.7 0.2,0 15.5,8.8 34.1,19.5 z M 773,255 l 19.9,34.5 -29.1,0.3 -29.1,0.2 -25.6,-14.7 c -14.1,-8 -25.8,-14.9 -26.1,-15.1 -0.3,-0.3 0,-0.6 0.6,-0.9 0.5,-0.2 16.1,-9.1 34.5,-19.8 18.3,-10.6 33.8,-19.3 34.2,-19.2 0.5,0.1 9.8,15.8 20.7,34.7 z m -483.2,23.7 -0.3,10.8 -10.7,0.3 c -6.2,0.1 -10.8,-0.1 -10.8,-0.7 0,-0.5 1.7,-3.8 3.7,-7.3 3,-5.3 4.7,-7.1 9.7,-10 3.4,-2 6.7,-3.7 7.4,-3.7 1,-0.1 1.2,2.4 1,10.6 z m 708.4,-7 c 5.5,3.1 7,4.6 10.1,10.1 2,3.5 3.7,6.8 3.7,7.3 0,0.6 -4.6,0.8 -10.7,0.7 l -10.8,-0.3 -0.3,-10.8 c -0.1,-6.1 0.1,-10.7 0.7,-10.7 0.5,0 3.8,1.7 7.3,3.7 z m -353.9,15.5 4.2,2.3 -4.2,0.3 c -2.4,0.2 -6.2,0.2 -8.5,0 l -4.3,-0.3 4,-2.2 c 2.2,-1.2 4.1,-2.2 4.3,-2.3 0.1,0 2.2,1 4.5,2.2 z m -449,48 c -1.1,1.8 -11.1,19.2 -22.3,38.5 -11.2,19.4 -20.6,35.3 -21,35.3 -0.5,0 -2.9,-3.7 -5.4,-8.1 l -4.6,-8.2 v -20.1 -20.2 l 17.3,-10.1 17.2,-10.1 10.3,-0.1 10.4,-0.1 z m 94.4,49.8 0.3,52.5 -45.6,26.3 c -25.1,14.5 -46,26 -46.4,25.5 -0.5,-0.4 -5.9,-9.5 -12,-20.2 -10.9,-18.9 -11.2,-19.5 -9.7,-22 0.8,-1.4 15.8,-27.4 33.2,-57.6 17.5,-30.3 32.2,-55.6 32.8,-56.3 0.7,-0.9 6.4,-1.2 24.1,-1 l 23.1,0.3 z m 120.2,-47.3 c -1.8,3.2 -8.5,14.8 -14.9,25.8 l -11.5,20 -20,11.5 c -11,6.4 -22.6,13.1 -25.7,14.9 l -5.8,3.2 V 372.6 332 h 40.6 40.5 z m 61.1,-5.2 c 0,0.4 -11.8,7.5 -12.6,7.5 -0.3,0 0.5,-1.8 1.7,-4 2.1,-3.7 2.6,-4 6.6,-4 2.4,0 4.3,0.2 4.3,0.5 z m 322.6,40.9 71.6,41.4 41.4,71.6 41.4,71.6 v 82 82 l -41.4,71.6 -41.4,71.6 -71.6,41.4 L 722,948 H 640 558 L 486.4,906.6 414.8,865.2 373.4,793.6 332,722 v -82 -82 l 41.4,-71.6 41.4,-71.6 71.3,-41.4 71.4,-41.3 h 82.2 L 722,332 Z M 819.9,336 c 1.2,2.2 2,4 1.7,4 -0.8,0 -12.6,-7.1 -12.6,-7.5 0,-0.3 1.9,-0.5 4.3,-0.5 4,0 4.5,0.3 6.6,4 z M 948,372.6 v 40.5 l -5.7,-3.2 c -3.2,-1.8 -14.8,-8.5 -25.8,-14.9 l -20,-11.6 -11.8,-20.4 c -6.5,-11.3 -13.2,-22.9 -14.8,-25.8 l -3,-5.2 h 40.5 40.6 z m 89.8,-39.4 c 0.5,0.7 15.2,26 32.7,56.3 17.4,30.2 32.4,56.2 33.2,57.6 1.5,2.5 1.2,3.1 -9.7,22 -6.1,10.7 -11.5,19.8 -12,20.2 -0.4,0.5 -21.3,-11 -46.4,-25.5 L 990,437.5 v -52.1 c 0,-28.6 0.3,-52.4 0.7,-52.7 0.3,-0.4 10.9,-0.7 23.3,-0.7 17,0 23,0.3 23.8,1.2 z m 82.5,9 17.7,10.2 v 20.2 20.1 l -4.6,8.2 c -2.5,4.4 -4.9,8.1 -5.4,8.1 -0.4,0 -9.8,-15.9 -21,-35.3 -11.2,-19.3 -21.2,-36.7 -22.3,-38.5 l -1.9,-3.2 h 9.9 10 z M 336.5,464.9 c -2,3.3 -3.8,6.1 -4,6.1 -0.3,0 -0.5,-1.9 -0.5,-4.3 0,-3.9 0.3,-4.5 3.7,-6.4 2.1,-1.2 3.9,-2 4.1,-1.9 0.1,0.2 -1.3,3.1 -3.3,6.5 z m 611.5,1.8 c 0,2.4 -0.2,4.3 -0.5,4.3 -0.4,0 -7.5,-11.8 -7.5,-12.6 0,-0.2 1.8,0.6 4,1.8 3.7,2.1 4,2.6 4,6.5 z M 275.1,571.2 c -14.5,25.1 -15,25.9 -16.4,23.6 -8.6,-13.7 -38.7,-67.2 -38,-67.8 0.4,-0.4 16.1,-9.6 34.8,-20.4 l 34,-19.5 0.3,29 0.2,29.1 z M 1025,507 c 18.4,10.6 33.9,19.6 34.3,20 0.7,0.6 -29.4,54.2 -38,67.8 -1.4,2.3 -1.9,1.5 -16.4,-23.5 L 990.1,545.5 990,516.2 c 0,-16.1 0.3,-29.1 0.8,-28.9 0.4,0.2 15.8,9.1 34.2,19.7 z m -869.2,-4.8 c 2.9,5 4.9,9.5 4.5,9.9 -0.4,0.4 -4.7,3 -9.5,5.8 l -8.8,5 v -8.1 c 0,-7.4 0.3,-8.6 3.8,-14.9 2,-3.8 3.9,-6.9 4.2,-6.9 0.3,0 2.9,4.1 5.8,9.2 z m 978.5,-2.3 c 3.4,6.3 3.7,7.5 3.7,14.9 v 8.1 l -8.7,-5 c -4.9,-2.8 -9.2,-5.4 -9.6,-5.8 -0.7,-0.7 9.1,-19.1 10.3,-19.1 0.3,0 2.2,3.1 4.3,6.9 z m -925.2,94.5 c 14.2,24.7 25.9,45.2 25.9,45.6 0,0.8 -50.8,89 -52,90.3 -0.4,0.4 -9.8,-4.5 -20.8,-10.9 L 142,707.8 V 640 572.2 l 19.8,-11.5 c 10.8,-6.3 20.1,-11.4 20.5,-11.3 0.5,0.1 12.5,20.3 26.8,45 z m 909.2,-33.6 19.7,11.4 v 67.8 67.8 l -20.2,11.6 c -11.1,6.4 -20.5,11.3 -20.9,10.9 -1.1,-1.3 -51.9,-89.6 -51.9,-90.4 0,-0.3 3.8,-7.1 8.3,-15 4.6,-7.9 16.4,-28.3 26.2,-45.2 9.7,-16.9 18,-30.7 18.4,-30.5 0.4,0.2 9.6,5.4 20.4,11.6 z M 102,639.9 c 0,24.2 0,44.3 0,44.6 0,0.2 -3.9,-1.9 -8.6,-4.8 l -8.6,-5.2 -10,-17.3 -9.9,-17.2 9.9,-17.3 10,-17.2 8.3,-5.1 c 4.6,-2.8 8.5,-5 8.7,-4.9 0.1,0.1 0.2,20.1 0.2,44.4 z m 1103.2,-17.2 9.9,17.3 -9.9,17.2 -10,17.3 -8.6,5.2 c -4.7,2.9 -8.6,5 -8.6,4.8 0,-0.3 0,-20.3 0,-44.5 0,-24.2 0,-44.2 0,-44.5 0,-0.2 3.9,1.9 8.6,4.8 l 8.6,5.2 z m -915.4,21.5 -0.3,4.3 -2.3,-4.3 -2.2,-4.2 2.2,-4.3 2.3,-4.2 0.3,4.2 c 0.2,2.4 0.2,6.2 0,8.5 z M 993,636 l 2,4 -2,4 c -1.1,2.2 -2.3,4 -2.5,4 -0.3,0 -0.5,-3.6 -0.5,-8 0,-4.4 0.2,-8 0.5,-8 0.2,0 1.4,1.8 2.5,4 z m -703.2,127.9 -0.3,29 -34,-19.5 c -18.7,-10.8 -34.4,-20 -34.8,-20.4 -0.7,-0.6 29.4,-54.1 38,-67.8 1.4,-2.3 1.9,-1.5 16.4,23.6 l 14.9,26 z m 751.1,-45 c 10.6,18.3 18.9,33.7 18.4,34.1 -0.4,0.4 -16.1,9.6 -34.8,20.4 l -34,19.5 -0.3,-29 -0.2,-29.1 14.7,-25.8 c 10.9,-19.1 15.1,-25.5 15.9,-24.7 0.6,0.7 9.7,16.2 20.3,34.6 z m -880.6,49 c 0.7,0.7 -9.1,19.1 -10.3,19.1 -0.3,0 -2.2,-3.1 -4.2,-6.9 -3.5,-6.3 -3.8,-7.5 -3.8,-14.9 v -8.1 l 8.8,5 c 4.8,2.8 9.1,5.4 9.5,5.8 z m 974,12.1 c -2.1,3.9 -4.1,7 -4.4,7 -0.7,0 -10.4,-17.1 -10.4,-18.4 0,-0.4 4.1,-3.2 9,-6 l 9,-5.2 0.3,7.8 c 0.3,7.5 0.1,8.2 -3.5,14.8 z m -889.4,36.5 45.1,26 -0.2,52.5 -0.3,52.5 -23.1,0.3 c -17.7,0.2 -23.4,-0.1 -24.1,-1 -0.6,-0.7 -15.3,-26.1 -32.8,-56.3 -17.4,-30.3 -32.4,-56.2 -33.2,-57.6 -1.5,-2.5 -1.3,-3 6.2,-16 4.3,-7.4 9.6,-16.5 11.7,-20.2 2.2,-3.8 4.3,-6.7 4.8,-6.5 0.5,0.2 21.1,12 45.9,26.3 z m 848.3,-7 c 6.1,10.5 11.2,19.5 11.4,20.1 0.4,0.9 -63.9,113.5 -66.9,117.2 -0.7,0.9 -6.4,1.2 -24.1,1 l -23.1,-0.3 -0.2,-52.5 -0.3,-52.5 45.3,-26.2 c 24.8,-14.4 45.6,-26.1 46.1,-25.9 0.5,0.1 5.8,8.7 11.8,19.1 z m -756.7,5.6 c 1.9,3.3 3.5,6.2 3.5,6.5 0,0.3 -1.8,-0.5 -4,-1.7 -3.7,-2.1 -4,-2.6 -4,-6.6 0,-2.4 0.2,-4.3 0.5,-4.3 0.2,0 2,2.7 4,6.1 z M 948,813.3 c 0,4 -0.3,4.5 -4,6.6 -2.2,1.2 -4,2 -4,1.7 0,-0.8 7.1,-12.6 7.5,-12.6 0.3,0 0.5,1.9 0.5,4.3 z m -584.5,71.7 20,11.5 11.5,20 c 6.4,11 13.1,22.6 14.9,25.7 l 3.2,5.8 H 372.6 332 v -40.6 -40.5 l 5.8,3.2 c 3.1,1.8 14.7,8.5 25.7,14.9 z m 584.2,62.7 c -0.2,0.2 -18.4,0.2 -40.5,0.1 l -40.1,-0.3 14.7,-25.5 14.8,-25.5 25.4,-14.7 25.5,-14.7 0.3,40.1 c 0.1,22.1 0.1,40.3 -0.1,40.5 z m -772.8,-38.2 22,38 -9.7,0.3 -9.8,0.3 -17.7,-10.3 -17.7,-10.2 v -20.2 -20.1 l 4.6,-8.2 c 2.6,-4.5 5,-8 5.5,-7.9 0.5,0.2 10.7,17.4 22.8,38.3 z m 958.5,-30.4 4.6,8.2 v 20.1 20.2 l -17.7,10.2 -17.7,10.3 -9.8,-0.3 -9.7,-0.3 22.1,-38.3 c 12.2,-21 22.4,-38.2 22.9,-38.2 0.4,0 2.8,3.7 5.3,8.1 z m -668.5,64.4 c 3.4,2 6.1,3.8 6.1,4 0,0.3 -1.9,0.5 -4.3,0.5 -4,0 -4.5,-0.3 -6.6,-4 -1.2,-2.2 -2,-4 -1.7,-4 0.3,0 3.2,1.6 6.5,3.5 z m 355,0.5 c -2.1,3.7 -2.6,4 -6.8,4 -2.4,0 -4.1,-0.3 -3.7,-0.8 1.1,-1.1 11,-7 11.9,-7.1 0.5,-0.1 -0.2,1.7 -1.4,3.9 z m -530.1,57.2 c 0.1,6.2 -0.1,10.8 -0.7,10.8 -0.5,0 -3.8,-1.7 -7.3,-3.7 -5.5,-3.1 -7,-4.6 -10.1,-10.1 -2,-3.5 -3.7,-6.8 -3.7,-7.3 0,-0.6 4.6,-0.8 10.8,-0.7 l 10.7,0.3 z m 174,34.4 c 14.5,25.1 26,46 25.5,46.4 -0.4,0.5 -9.5,5.9 -20.2,12 -18.9,10.9 -19.5,11.2 -22,9.7 -1.4,-0.8 -27.3,-15.8 -57.6,-33.2 -30.2,-17.5 -55.6,-32.2 -56.2,-32.7 -1,-0.8 -1.3,-6.8 -1.3,-23.8 0,-12.4 0.3,-23 0.7,-23.3 0.3,-0.4 24.1,-0.7 52.7,-0.7 h 52.1 z m 107.1,-30.9 c 14.1,8 25.8,14.9 26.1,15.1 0.3,0.3 0,0.6 -0.6,0.9 -0.5,0.2 -16.2,9.1 -34.8,19.9 -18.6,10.7 -34.2,19.2 -34.6,18.7 -0.5,-0.6 -35.1,-60.2 -39.7,-68.6 -0.2,-0.4 12.7,-0.7 28.8,-0.7 h 29.2 z M 648,990.5 c 0,0.2 -1.8,1.4 -4,2.5 l -4,2 -4,-2 c -2.2,-1.1 -4,-2.3 -4,-2.5 0,-0.3 3.6,-0.5 8,-0.5 4.4,0 8,0.2 8,0.5 z m 144.7,0.2 c -4.6,8.4 -39.2,68 -39.7,68.6 -0.4,0.5 -16,-8 -34.6,-18.7 -18.6,-10.8 -34.3,-19.8 -34.8,-20.1 -0.7,-0.3 -0.8,-0.7 -0.1,-1 0.6,-0.3 12.3,-7.1 26,-15 l 25,-14.5 h 29.3 c 16.1,0 29.1,0.3 28.9,0.7 z m 155.1,22.9 c 0.2,17.7 -0.1,23.4 -1,24.1 -0.7,0.6 -26,15.3 -56.3,32.8 -30.2,17.4 -56.2,32.4 -57.6,33.2 -2.5,1.5 -3.1,1.2 -22,-9.7 -10.7,-6.1 -19.8,-11.5 -20.2,-12 -0.5,-0.4 11,-21.3 25.5,-46.4 l 26.3,-45.6 52.5,0.3 52.5,0.2 z m 64.2,-22.7 c 0,0.5 -1.7,3.8 -3.7,7.3 -3.1,5.5 -4.6,7 -10.1,10.1 -3.5,2 -6.8,3.7 -7.3,3.7 -1,0 -1.2,-20.3 -0.2,-21.3 1,-1 21.3,-0.8 21.3,0.2 z m -326.9,79.7 c 24.4,14.1 44.8,26 45.2,26.4 0.4,0.4 -4.5,9.8 -10.9,20.8 L 707.8,1138 H 640 572.2 l -11.6,-20.1 c -6.4,-11.1 -11.4,-20.5 -11,-20.8 1.2,-1.2 88.9,-51.9 90,-52 0.6,-0.1 21.1,11.4 45.5,25.5 z M 373.8,1107 c 19.3,11.2 35.2,20.6 35.2,21 0,0.5 -3.7,2.9 -8.1,5.4 l -8.2,4.6 h -20.1 -20.2 l -10.2,-17.7 -10.2,-17.6 v -10 -9.9 l 3.3,1.9 c 1.7,1.1 19.1,11.1 38.5,22.3 z m 564,13.3 -10.2,17.7 h -20.2 -20.1 l -8.2,-4.6 c -4.5,-2.6 -8,-5 -7.9,-5.5 0.2,-0.5 17.4,-10.7 38.3,-22.8 l 38,-22 0.3,9.7 0.3,9.8 z m -420.2,8.5 5.3,9.2 h -8.1 c -7.4,0 -8.6,-0.3 -14.9,-3.8 -3.8,-2 -6.9,-3.9 -6.9,-4.2 0,-0.9 17.4,-10.8 18.4,-10.6 0.5,0.1 3.3,4.3 6.2,9.4 z m 260.7,-4.4 c 4.8,2.7 8.7,5.2 8.7,5.5 0,0.3 -3.1,2.3 -7,4.4 -6.6,3.6 -7.3,3.8 -14.8,3.5 l -7.8,-0.3 5.4,-9.3 c 3,-5.1 5.7,-9.2 6.1,-9 0.4,0.2 4.6,2.5 9.4,5.2 z m -93.6,53.6 c 0.2,0 -2.1,3.9 -5,8.6 l -5.2,8.6 -17.2,10 -17.3,9.9 -17.2,-9.9 -17.3,-10 -5.2,-8.5 c -2.8,-4.7 -5,-8.7 -4.8,-8.9 0.2,-0.2 84,-0.1 89.2,0.2 z"
     id="path4"
     style="fill:#000000;stroke:none;stroke-width:0.1" />
</svg>
